<?xml version="1.0"?>
<svg width="576" height="512" xmlns="http://www.w3.org/2000/svg" xmlns:svg="http://www.w3.org/2000/svg">
 <g class="layer">
  <title>Layer 1</title>
  <path d="m560,192l-101.6,0l-93.11,-179.1c-6.06,-11.72 -20.61,-16.37 -32.36,-10.22c-11.78,6.1 -16.34,20.59 -10.22,32.34l81.61,156.9l-232.62,0l81.61,-156.9c6.09,-11.7 1.59,-26.2 -10.21,-32.29c-11.8,-6.13 -26.3,-1.5 -32.4,10.22l-93.11,179.1l-101.59,-0.05c-8.84,0 -16,7.16 -16,15.1l0,32c0,8.84 7.16,15.1 16,15.1l23.11,0l45.75,205.9c6.51,31.1 32.44,51.9 62.44,51.9l281.3,0c29.1,0 55.97,-20.83 62.48,-50.12l45.75,-205.9l23.17,0c8.84,0 16,-7.16 16,-15.1l0,-32c0,-9.68 -7.2,-16.88 -16,-16.88zm-368,240c0,8.83 -7.17,15.1 -16,15.1c-8.83,0 -16,-7.17 -16,-15.1l0,-128c0,-8.83 7.17,-15.1 16,-15.1c8.83,0 16,7.17 16,15.1l0,128zm112,0c0,8.83 -7.17,15.1 -16,15.1c-8.83,0 -16,-7.16 -16,-15.1l0,-128c0,-8.83 7.17,-15.1 16,-15.1c8.83,0 16,7.17 16,15.1l0,128zm112,0c0,8.83 -7.17,15.1 -16,15.1c-8.83,0 -16,-7.17 -16,-15.1l0,-128c0,-8.83 7.17,-15.1 16,-15.1c8.83,0 16,7.17 16,15.1l0,128z" fill="#f46705" id="svg_1"/>
 </g>
</svg>