<?xml version="1.0"?>
<svg width="448" height="512" xmlns="http://www.w3.org/2000/svg" xmlns:svg="http://www.w3.org/2000/svg">
 <g class="layer">
  <title>Layer 1</title>
  <path d="m432,256c0,17.69 -14.33,32.01 -32,32.01l-144,0l0,144c0,17.69 -14.33,31.99 -32,31.99s-32,-14.3 -32,-31.99l0,-144l-144,0c-17.67,0 -32,-14.32 -32,-32.01s14.33,-31.99 32,-31.99l144,0l0,-144c0,-17.69 14.33,-32.01 32,-32.01s32,14.32 32,32.01l0,144l144,0c17.7,-0.01 32,14.29 32,31.99z" fill="#f46705" id="svg_1"/>
 </g>
</svg>