<?xml version="1.0"?>
<svg width="448" height="512" xmlns="http://www.w3.org/2000/svg" xmlns:svg="http://www.w3.org/2000/svg">
 <g class="layer">
  <title>Layer 1</title>
  <path d="m432,80l-82.38,0l-34,-56.75c-9.52,-14.42 -24.22,-23.25 -41.02,-23.25l-101.2,0c-16.8,0 -32.4,8.83 -41,23.25l-34.02,56.75l-82.38,0c-8.87,0 -16,7.13 -16,16l0,16c0,8.9 7.13,16 16,16l16,0l0,320c0,35.35 28.65,64 64,64l256,0c35.35,0 64,-28.65 64,-64l0,-320l16,0c8.9,0 16,-7.1 16,-16l0,-16c0,-8.87 -7.1,-16 -16,-16zm-260.1,-29.12c1,-1.75 3,-2.88 5.1,-2.88l94,0c2.13,0 4.13,1.13 5.13,2.88l17.47,29.12l-139.2,0l17.5,-29.12zm180.1,413.12l-256,0c-8.84,0 -16,-7.16 -16,-16l0,-320l288,0l0,320c0,8.8 -7.2,16 -16,16zm-128,-48c8.84,0 16,-7.16 16,-16l0,-208c0,-8.84 -7.16,-16 -16,-16s-16,7.2 -16,16l0,208c0,8.8 7.2,16 16,16zm-80,0c8.8,0 16,-7.2 16,-16l0,-208c0,-8.84 -7.16,-16 -16,-16s-16,7.2 -16,16l0,208c0,8.8 7.2,16 16,16zm160,0c8.84,0 16,-7.16 16,-16l0,-208c0,-8.84 -7.16,-16 -16,-16s-16,7.2 -16,16l0,208c0,8.8 7.2,16 16,16z" fill="#f46705" id="svg_1"/>
 </g>
</svg>